<?xml version="1.0" standalone="no"?>
<!DOCTYPE svg PUBLIC "-//W3C//DTD SVG 20010904//EN"
 "http://www.w3.org/TR/2001/REC-SVG-20010904/DTD/svg10.dtd">
<svg version="1.0" xmlns="http://www.w3.org/2000/svg"
 width="580.000000pt" height="580.000000pt" viewBox="0 0 580.000000 580.000000"
 preserveAspectRatio="xMidYMid meet">
<metadata>
Created by potrace 1.14, written by Peter Selinger 2001-2017
</metadata>
<g transform="translate(0.000000,580.000000) scale(0.100000,-0.100000)"
fill="#000000" stroke="none">
<path d="M2399 4348 c-20 -38 -18 -193 5 -297 14 -63 73 -198 99 -227 7 -7 35
-40 62 -73 28 -33 56 -61 63 -61 6 0 12 -4 12 -9 0 -5 39 -35 87 -68 122 -81
120 -79 89 -108 -14 -13 -26 -21 -26 -17 0 4 -4 2 -8 -3 -4 -6 -39 -32 -78
-58 -76 -51 -146 -114 -179 -161 -11 -15 -25 -34 -31 -40 -29 -31 -91 -182
-102 -250 -5 -34 -6 -162 -2 -216 7 -79 82 -220 157 -296 47 -47 127 -114 137
-114 4 0 12 -5 19 -11 7 -6 36 -26 66 -44 l54 -33 -34 -17 c-71 -36 -166 -107
-219 -163 -60 -63 -90 -99 -90 -108 0 -3 -9 -19 -21 -35 -11 -16 -17 -29 -13
-29 4 0 -1 -9 -11 -20 -10 -11 -15 -20 -12 -20 3 0 -1 -16 -9 -36 -31 -74 -38
-243 -14 -345 15 -63 25 -79 51 -79 11 0 20 6 21 13 0 6 2 19 3 27 1 8 -4 34
-11 57 -11 41 -13 228 -1 268 16 58 59 155 68 155 4 0 10 8 13 18 8 23 112
132 156 162 19 13 40 29 47 35 36 30 43 35 48 36 2 0 28 10 56 24 55 25 64 24
132 -12 17 -9 34 -17 37 -18 8 -1 103 -67 130 -91 14 -13 34 -31 46 -41 30
-26 124 -160 117 -167 -4 -3 0 -6 7 -6 7 0 11 -3 8 -6 -4 -3 0 -20 8 -39 33
-80 39 -221 13 -321 -16 -62 -16 -69 -2 -80 16 -11 54 -8 51 5 -1 3 5 26 12
51 27 91 20 265 -14 355 -4 11 -13 34 -18 50 -29 80 -104 176 -203 257 -76 61
-72 59 -125 87 -25 13 -48 27 -52 30 -4 4 22 24 59 45 37 21 71 42 77 47 77
62 181 159 171 159 -3 0 4 10 15 22 19 21 71 118 77 143 1 5 9 34 17 64 21 76
14 216 -15 306 -12 39 -23 72 -24 75 0 3 -7 16 -15 30 -8 14 -15 27 -15 30 0
3 -14 25 -31 50 -52 75 -124 141 -237 220 l-109 75 25 20 c13 11 34 27 46 35
13 8 32 23 43 33 12 9 24 17 27 17 11 0 120 99 156 141 95 114 154 273 159
431 5 125 -15 185 -52 162 -13 -8 -16 -22 -14 -55 2 -24 3 -57 4 -74 2 -43
-11 -166 -19 -179 -4 -6 -9 -20 -10 -30 -2 -11 -8 -25 -14 -32 -6 -7 -8 -17
-5 -23 3 -5 3 -11 -1 -13 -5 -1 -18 -24 -31 -50 -13 -27 -27 -48 -32 -48 -5 0
-11 -9 -15 -19 -11 -35 -110 -125 -219 -199 -113 -76 -122 -78 -164 -35 -7 7
-20 13 -28 13 -8 0 -14 3 -14 8 0 4 -27 25 -60 47 -33 22 -60 43 -60 48 0 4
-4 7 -10 7 -16 0 -89 81 -123 136 -20 32 -70 133 -74 149 -1 6 -9 38 -17 73
-11 41 -15 95 -13 160 2 53 2 103 -1 110 -7 20 -40 14 -53 -10z m531 -880 c0
-5 4 -6 10 -3 5 3 17 -3 27 -15 10 -11 23 -20 30 -20 7 0 13 -4 13 -10 0 -5 5
-10 10 -10 6 0 16 -5 23 -10 7 -6 46 -37 87 -69 41 -32 84 -71 95 -86 11 -16
25 -33 31 -39 12 -12 87 -162 90 -180 1 -6 5 -24 9 -41 4 -16 9 -68 10 -115 3
-127 -23 -208 -102 -311 -45 -61 -156 -159 -178 -159 -7 0 -15 -4 -17 -8 -4
-11 -81 -57 -90 -54 -5 1 -8 -2 -8 -8 0 -5 -16 -14 -36 -19 -31 -9 -44 -6 -88
16 -64 32 -146 84 -169 107 -9 10 -17 15 -17 11 0 -6 -70 64 -105 106 -31 37
-81 139 -94 192 -24 100 -6 279 35 345 8 12 12 22 9 22 -4 0 3 13 14 29 12 16
21 34 21 39 0 15 143 162 158 162 7 0 10 5 7 10 -3 6 -1 10 4 10 6 0 29 12 50
28 21 15 49 34 61 42 12 8 35 25 52 37 29 21 58 21 58 1z"/>
<path d="M2604 3158 c-14 -23 -11 -47 7 -53 10 -4 143 -5 294 -4 238 2 277 4
289 18 10 11 12 21 6 31 -8 12 -56 15 -300 16 -160 0 -293 -3 -296 -8z"/>
<path d="M2638 2922 c-38 -4 -54 -26 -36 -49 12 -17 32 -19 295 -17 293 1 324
5 304 42 -10 17 -28 22 -81 22 -19 0 -44 0 -55 0 -305 4 -405 4 -427 2z"/>
<path d="M2604 2663 c-17 -18 -18 -28 -1 -42 16 -13 562 -13 589 1 16 8 19 31
5 45 -4 4 -136 8 -293 8 -234 2 -288 -1 -300 -12z"/>
<path d="M2535 4130 c-15 -47 -7 -48 358 -45 188 2 352 3 363 4 29 1 38 38 14
51 -11 6 -159 10 -374 10 -349 0 -355 0 -361 -20z"/>
<path d="M2660 3901 c-30 -4 -39 -16 -33 -42 6 -23 -19 -21 292 -21 203 0 255
2 262 13 15 24 10 38 -16 45 -26 6 -463 11 -505 5z"/>
<path d="M2630 1921 c-22 -43 -1 -46 266 -45 137 0 258 4 269 7 12 4 21 16 22
27 1 11 1 20 0 21 -1 1 -124 3 -274 5 -261 4 -273 3 -283 -15z"/>
<path d="M2558 1692 c-36 -7 -31 -62 6 -62 11 -1 104 -1 206 -1 511 1 488 0
505 17 14 14 14 19 3 30 -10 10 -89 14 -359 16 -190 2 -353 2 -361 0z"/>
</g>
</svg>
